Coordinates
version=1
nRows=7
nColumns=33
inDegrees=yes

Units are S.I. units (second, meters, Newtons, ...)
Angles are in degrees.

endheader
time	ground_thorax_rot_x	ground_thorax_rot_y	ground_thorax_rot_z	ground_thorax_tx	ground_thorax_ty	ground_thorax_tz	clav_prot_r	clav_elev_r	scapula_abduction_r	scapula_elevation_r	scapula_upward_rot_r	scapula_winging_r	shoulder_elv_r	plane_of_elev_r	axial_rot_r	elbow_flexion_r	pro_sup_r	wrist_flex_r	wrist_dev_r	clav_prot_l	clav_elev_l	scapula_abduction_l	scapula_elevation_l	scapula_upward_rot_l	scapula_winging_l	shoulder_elv_l	plane_of_elev_l	axial_rot_l	elbow_flexion_l	pro_sup_l	wrist_flex_l	wrist_dev_l
     11.56000000	     28.39752003	     32.10720702	     39.92525095	     -0.74538805	    764.17371362	    -30.77392492	     12.81081022	     35.64374068	     26.40498914	     45.00000000	    -45.00000000	  -3321.85897881	  -1909.41913779	    159.73020767	     20.48003545	   2160.78098531	   -193.46061138	     11.92469512	     13.91438307	    -11.67468623	    -45.00000000	    -35.97664596	     45.00000000	    -45.00000000	  -3860.00245182	  -1351.79802829	     16.09518689	   -179.99999979	    371.99189085	    200.88342122	     10.18591059	    -12.14554162
     11.57000000	     28.48568380	     31.97411483	     39.72365612	     -3.70448159	    765.03198666	    -30.78854217	     12.77562858	     35.61451936	     26.36077797	     45.00000000	    -45.00000000	  -3322.06304845	  -1909.30743882	    159.69820891	     20.59182645	   2160.77828906	   -193.16170520	     11.97685731	     13.94153945	    -11.56892877	    -45.00000000	    -36.01640001	     45.00000000	    -45.00000000	  -3859.81664601	  -1351.67305089	     16.14023062	   -179.99999979	    372.02776983	    200.99015173	     10.22079139	    -12.18046378
     11.58000000	     28.52813150	     31.84787609	     39.58299590	     -6.68757194	    765.93767674	    -30.81037589	     12.85727835	     35.52998991	     26.31946711	     45.00000000	    -45.00000000	  -3322.25904039	  -1909.21822901	    159.69053168	     20.71081039	   2160.79672288	   -192.88762495	     11.99779787	     14.01916774	    -11.46062082	    -45.00000000	    -36.15299795	     45.00000000	    -45.00000000	  -3859.57452318	  -1351.60447070	     16.18459261	   -179.99999979	    372.09715152	    201.09218705	     10.25835775	    -12.20837247
     11.59000000	     28.62151340	     31.71818172	     39.34605305	     -9.68688266	    766.89076577	    -30.83875962	     12.80990994	     35.50145100	     26.24981071	     45.00000000	    -45.00000000	  -3322.43291904	  -1909.11999133	    159.70773854	     20.78095004	   2160.75932407	   -192.62967023	     12.05747309	     14.03299883	    -11.35832599	    -45.00000000	    -36.18366180	     45.00000000	    -45.00000000	  -3859.42789140	  -1351.43347610	     16.23217981	   -179.99999979	    372.11914123	    201.17824288	     10.29871745	    -12.24746499
     11.60000000	     28.68749873	     31.53090962	     39.09445629	    -12.69228477	    767.89072942	    -30.87284549	     12.78024955	     35.48235964	     26.19086542	     45.00000000	    -45.00000000	  -3322.59778998	  -1909.07065203	    159.69702515	     20.90190808	   2160.71247416	   -192.38630152	     12.10678668	     14.08362819	    -11.25573896	    -45.00000000	    -36.27986254	     45.00000000	    -45.00000000	  -3859.28011840	  -1351.29913276	     16.29179432	   -179.99999979	    372.17828593	    201.24940464	     10.34949444	    -12.27752288
     11.61000000	     28.94447350	     31.28108904	     38.62817386	    -15.70188866	    768.93912230	    -30.91215070	     12.48784443	     35.74582173	     26.16130974	     45.00000000	    -45.00000000	  -3322.89704928	  -1909.02213594	    159.50117788	     20.87978595	   2160.70900758	   -192.14445968	     12.18862672	     14.08348545	    -11.18819203	    -45.00000000	    -36.19102237	     45.00000000	    -45.00000000	  -3859.23248265	  -1351.21783633	     16.30615244	   -179.99999979	    372.01077153	    201.28276004	     10.42161274	    -12.40157159
     11.62000000	     28.93294903	     31.15358259	     38.54397965	    -18.70512668	    770.03386657	    -30.95628027	     12.66601368	     35.54669391	     26.07065823	     45.00000000	    -45.00000000	  -3322.97479203	  -1908.90132143	    159.58885191	     20.94536436	   2160.68276658	   -191.93484616	     12.21287598	     14.12856883	    -11.04846141	    -45.00000000	    -36.32482436	     45.00000000	    -45.00000000	  -3859.00346982	  -1351.04956802	     16.39026761	   -179.99999979	    372.19474802	    201.32460424	     10.47215384	    -12.37863474
